<?xml version="1.0" standalone="no"?>
<!DOCTYPE svg PUBLIC "-//W3C//DTD SVG 20010904//EN"
 "http://www.w3.org/TR/2001/REC-SVG-20010904/DTD/svg10.dtd">
<svg version="1.0" xmlns="http://www.w3.org/2000/svg"
 width="150.000000pt" height="150.000000pt" viewBox="0 0 150.000000 150.000000"
 preserveAspectRatio="xMidYMid meet">
<metadata>
Created by potrace 1.11, written by Peter Selinger 2001-2013
</metadata>
<g transform="translate(0.000000,150.000000) scale(0.100000,-0.100000)"
fill="#000000" stroke="none">
<path d="M432 1242 c-18 -2 -30 -7 -27 -13 3 -5 -1 -6 -9 -3 -19 7 -116 -24
-116 -38 0 -6 7 -5 18 3 16 13 16 12 2 -4 -8 -11 -16 -28 -17 -40 -2 -11 -6
-23 -9 -26 -3 -3 -4 9 -1 26 3 18 1 35 -4 39 -5 3 -9 0 -9 -5 0 -6 -6 -10 -12
-8 -7 1 -12 -4 -10 -12 2 -8 -3 -11 -13 -8 -8 4 -15 3 -15 -2 0 -4 -11 -13
-25 -19 -14 -6 -24 -17 -23 -24 2 -7 -4 -12 -12 -10 -8 2 -12 0 -8 -4 4 -4 -2
-15 -14 -25 -11 -11 -16 -19 -10 -19 7 0 12 -5 12 -12 0 -6 -3 -8 -6 -5 -9 9
-46 -12 -39 -22 2 -5 -2 -14 -10 -21 -8 -7 -15 -18 -15 -24 0 -6 4 -5 9 3 5 8
11 9 15 3 7 -12 46 -4 46 10 0 5 -4 6 -10 3 -6 -4 -7 1 -3 11 5 15 7 14 17 -2
16 -29 15 -43 -2 -43 -80 -3 -83 -4 -68 -20 13 -13 13 -16 -2 -29 -16 -13 -16
-13 1 -8 18 6 24 -9 7 -17 -6 -3 -5 -4 2 -3 7 1 13 12 14 23 1 25 12 43 25 43
5 0 4 -9 -3 -19 -10 -16 -9 -23 5 -39 9 -10 14 -22 10 -27 -5 -4 2 -3 14 4 34
17 40 13 13 -10 -16 -14 -19 -19 -7 -15 18 6 24 -9 7 -17 -6 -3 -5 -4 2 -3 7
2 13 11 13 21 0 28 20 28 21 0 1 -14 -2 -25 -7 -25 -5 0 -9 -5 -9 -10 0 -6 8
-5 19 2 15 9 17 15 9 25 -22 27 -1 21 25 -7 28 -29 28 -29 7 -42 -11 -7 -20
-17 -20 -22 0 -4 6 -3 13 3 8 6 17 8 20 4 10 -9 9 -25 -1 -19 -4 2 -9 -5 -9
-17 -2 -19 -1 -20 8 -5 6 11 16 15 26 11 13 -5 12 -1 -4 17 -12 12 -20 27 -17
32 6 10 24 11 23 1 -5 -28 1 -35 18 -22 15 12 16 12 10 -4 -5 -12 3 -26 26
-46 31 -29 32 -29 13 -50 -19 -21 -43 -30 -32 -12 3 5 -3 20 -15 32 l-20 24
17 -27 c9 -16 13 -28 8 -28 -4 0 -3 -5 4 -12 9 -9 16 -8 30 5 16 15 19 15 30
-4 12 -19 11 -20 -10 -14 -20 5 -20 4 -6 -5 11 -7 24 -8 34 -2 15 8 15 10 0
15 -9 4 -16 11 -16 17 0 7 6 8 19 1 10 -6 22 -7 26 -3 5 4 5 -1 2 -11 -4 -10
-3 -16 1 -13 5 3 16 -4 25 -14 11 -14 12 -20 4 -24 -7 -3 -1 -3 13 0 20 5 23
4 13 -7 -10 -10 -9 -15 5 -26 16 -13 15 -14 -5 -8 -25 7 -36 -5 -21 -25 8 -12
9 -12 4 2 -4 14 1 16 25 13 17 -2 38 -10 47 -17 9 -7 13 -8 9 -2 -4 7 0 15 9
18 8 3 13 2 10 -3 -3 -5 1 -14 9 -21 8 -7 15 -17 15 -23 0 -6 18 -32 40 -58
l40 -48 -22 -13 c-13 -7 -25 -12 -28 -11 -4 1 -6 -9 -6 -23 0 -13 4 -24 9 -24
5 0 7 6 4 14 -4 9 6 22 25 34 28 18 32 18 48 3 15 -14 15 -18 2 -33 -8 -10
-23 -20 -33 -23 -11 -4 -19 -11 -19 -17 0 -6 15 1 34 16 19 14 40 26 47 26 7
0 4 -7 -7 -15 -18 -14 -17 -15 7 -4 23 9 38 7 93 -15 37 -15 71 -24 76 -21 6
3 10 1 10 -5 0 -5 12 -10 28 -9 15 0 37 -2 50 -4 12 -3 22 -1 22 4 0 6 6 6 18
0 10 -5 24 -6 31 -1 8 4 26 7 41 6 19 -1 26 2 23 10 -3 7 -11 10 -19 7 -10 -4
-12 0 -8 11 3 9 11 13 17 9 6 -3 7 -1 3 5 -10 17 7 15 30 -4 16 -13 16 -15 2
-10 -10 3 -18 1 -18 -5 0 -13 32 -7 37 7 2 6 -8 16 -22 22 -14 6 -25 16 -25
22 0 12 22 9 33 -5 5 -6 7 -4 4 5 -2 8 -10 14 -16 13 -6 -2 -11 2 -11 7 0 6 6
10 14 10 21 0 30 20 16 33 -10 9 -12 8 -7 -5 4 -12 1 -18 -9 -18 -8 0 -12 4
-9 10 4 6 -1 7 -10 3 -15 -5 -15 -3 -4 15 7 11 17 18 21 16 4 -3 8 0 8 5 0 18
-19 12 -30 -9 -6 -11 -16 -20 -22 -20 -7 0 -6 5 2 15 10 12 10 15 0 15 -20 0
-3 13 22 17 21 3 51 34 42 43 -3 2 -9 -2 -14 -10 -11 -18 -47 -20 -62 -3 -9
11 -5 13 23 8 19 -3 30 -2 24 2 -5 5 -11 16 -13 25 -2 13 2 16 15 12 10 -3 14
-2 8 3 -5 4 -17 17 -25 27 -14 18 -13 19 2 13 23 -8 54 21 39 36 -8 8 -15 7
-23 -1 -20 -20 -32 -13 -13 8 11 12 14 20 7 21 -7 1 -16 3 -22 4 -5 1 -13 3
-17 4 -5 1 -2 5 6 10 9 6 10 11 2 15 -6 4 -11 2 -11 -5 0 -6 -8 -3 -17 8 -10
10 -14 13 -9 5 7 -9 5 -12 -5 -10 -8 2 -13 -3 -11 -11 1 -7 -2 -19 -8 -26 -8
-10 -6 -15 9 -20 12 -3 26 -16 32 -27 6 -11 7 -18 2 -15 -5 3 -15 2 -23 -4
-10 -6 -11 -9 -2 -9 6 0 12 -5 12 -11 0 -5 -4 -8 -9 -4 -5 3 -13 0 -17 -6 -4
-8 -3 -9 5 -5 6 4 11 4 10 -1 -5 -29 2 -36 17 -17 14 18 15 18 4 -3 -6 -13 -8
-23 -4 -23 3 0 0 -8 -7 -17 -8 -9 -9 -14 -3 -10 6 3 11 0 11 -8 0 -11 -4 -12
-14 -4 -9 8 -13 8 -13 0 0 -6 6 -11 13 -11 7 0 8 -3 2 -8 -12 -9 -19 -36 -7
-28 5 3 9 -1 9 -9 0 -8 -3 -14 -6 -13 -28 3 -31 -4 -10 -23 13 -11 19 -18 14
-15 -6 2 -11 -4 -11 -14 0 -10 4 -16 8 -14 4 3 8 0 8 -6 0 -7 -7 -9 -16 -6 -8
3 -12 2 -9 -3 8 -14 -9 -21 -25 -11 -9 6 -19 3 -28 -8 -7 -9 -10 -11 -6 -3 3
7 0 18 -7 23 -11 8 -10 9 3 4 10 -3 20 -1 23 4 4 6 0 11 -7 11 -7 1 -19 2 -27
3 -20 2 -21 43 -2 59 9 8 12 8 8 1 -4 -7 0 -14 8 -18 8 -3 17 -1 20 4 4 6 1
10 -5 10 -7 0 -9 8 -5 21 4 12 3 19 -2 16 -4 -3 -17 1 -28 9 -10 8 -14 14 -9
14 6 0 15 -5 20 -10 8 -8 15 -6 24 5 12 15 11 16 -5 13 -14 -2 -20 3 -21 19
-1 12 2 20 7 18 4 -3 10 -1 14 5 4 6 11 7 17 4 7 -4 8 -2 4 4 -4 7 -17 10 -29
8 -12 -1 -16 -1 -9 1 7 3 10 9 6 14 -3 5 -10 6 -16 3 -7 -5 -8 -2 -3 5 5 9 10
10 18 2 20 -20 30 -11 12 9 -15 16 -16 23 -6 33 10 9 11 8 5 -8 -7 -18 -6 -18
9 -6 13 10 15 17 6 27 -10 13 -6 18 13 15 4 0 6 8 5 19 -1 11 -6 20 -12 20 -5
0 -4 4 4 9 8 5 11 16 8 24 -4 12 -2 14 10 10 13 -5 13 -2 -2 20 -16 24 -16 27
-1 33 9 3 13 10 10 15 -3 5 -10 6 -16 3 -7 -4 -8 -2 -4 5 4 6 12 8 18 5 6 -4
8 -1 6 7 -3 8 -10 13 -16 12 -5 -1 -9 14 -7 35 1 20 -2 43 -7 50 -6 6 -7 12
-2 12 5 0 2 5 -6 10 -13 8 -12 10 3 10 10 0 15 5 12 10 -4 6 -11 7 -17 4 -7
-4 -8 -2 -4 5 4 6 12 8 18 5 7 -5 9 -2 5 8 -3 9 0 21 6 27 9 9 8 11 -5 6 -10
-4 -18 -11 -18 -16 0 -5 -5 -9 -12 -9 -9 0 -9 3 0 12 19 19 14 32 -5 17 -17
-13 -17 -12 -4 4 23 29 23 95 0 111 -13 9 -17 19 -13 31 5 13 4 16 -4 11 -7
-4 -15 -1 -18 8 -3 9 -9 14 -13 11 -4 -2 -8 2 -8 10 0 22 15 18 22 -5 3 -11
12 -19 18 -17 7 1 12 -7 12 -17 0 -11 5 -21 12 -23 8 -3 10 3 6 19 -3 13 -5
34 -5 48 0 24 0 24 -14 5 -8 -10 -14 -14 -14 -9 0 6 5 15 12 22 6 6 8 15 4 19
-4 4 -11 1 -16 -7 -5 -8 -12 -11 -16 -7 -10 10 2 20 29 23 33 4 33 4 17 14 -8
5 -11 12 -7 17 5 4 11 3 15 -2 4 -6 14 -11 22 -13 12 -2 11 1 -2 11 -10 8 -16
16 -13 18 2 3 -8 5 -23 4 -19 0 -27 -5 -26 -18 1 -9 -2 -14 -7 -11 -5 3 -9 0
-9 -5 0 -6 -5 -11 -12 -11 -9 0 -9 3 0 12 17 17 15 24 -8 25 -11 1 -18 -2 -15
-7 3 -4 -5 -6 -17 -2 -15 4 -19 2 -13 -7 5 -10 2 -11 -13 -7 -13 4 -36 -1 -60
-13 -35 -18 -42 -18 -67 -5 -73 38 -195 57 -293 46z m-47 -42 c3 -5 1 -10 -4
-10 -6 0 -11 5 -11 10 0 6 2 10 4 10 3 0 8 -4 11 -10z m525 -22 c0 -6 -3 -8
-7 -5 -3 4 -11 2 -18 -3 -8 -7 -12 -6 -12 3 0 7 9 14 19 14 10 1 18 -3 18 -9z
m-591 -50 c-11 -21 -15 -22 -25 -6 -5 7 -3 8 6 3 9 -6 12 -4 8 7 -4 8 0 15 7
15 10 0 11 -5 4 -19z m561 16 c0 -8 -19 -13 -24 -6 -3 5 1 9 9 9 8 0 15 -2 15
-3z m-630 -14 c0 -5 -2 -10 -4 -10 -3 0 -8 5 -11 10 -3 6 -1 10 4 10 6 0 11
-4 11 -10z m-24 -11 c4 -8 -1 -9 -17 -4 -22 7 -23 6 -10 -9 11 -13 12 -19 3
-25 -7 -4 -5 -11 9 -19 19 -12 20 -11 14 7 -3 10 -1 22 4 26 6 3 8 0 5 -8 -6
-16 24 -19 43 -5 14 11 36 1 28 -13 -4 -5 -2 -9 4 -9 5 0 12 5 14 10 3 6 4 5
3 -2 -2 -7 -9 -13 -17 -13 -8 0 -13 6 -11 13 4 21 -15 13 -37 -14 -20 -26 -20
-44 0 -44 6 0 8 4 5 8 -2 4 -1 14 3 21 6 9 18 2 45 -25 28 -28 34 -39 24 -45
-7 -5 -19 -7 -26 -4 -8 3 -12 0 -10 -7 7 -20 24 -19 51 2 25 20 39 49 17 35
-6 -3 -13 1 -16 9 -3 9 -10 13 -15 10 -5 -3 -6 2 -3 11 5 11 2 14 -10 9 -9 -3
-16 -4 -16 -1 0 3 7 8 15 11 10 4 20 -3 27 -19 6 -13 14 -22 19 -20 12 8 22
-15 11 -28 -13 -16 -11 -48 2 -44 6 2 10 13 8 23 -2 15 -1 16 7 4 14 -20 -6
-42 -31 -34 -17 5 -18 4 -6 -15 8 -14 15 -16 19 -9 10 16 42 -11 35 -29 -8
-19 23 -29 47 -14 13 8 23 9 29 3 7 -7 4 -10 -7 -9 -10 1 -20 -3 -22 -9 -2 -7
4 -11 13 -10 27 2 27 -21 1 -48 -29 -29 -23 -44 6 -19 14 13 18 14 11 3 -11
-18 -12 -42 -2 -55 4 -6 5 -20 4 -30 -2 -11 1 -26 7 -32 5 -7 6 -13 3 -13 -4
0 -4 -6 0 -12 11 -17 12 -48 2 -42 -4 3 -8 -1 -8 -8 0 -8 -3 -9 -8 -3 -4 6
-20 18 -35 28 -15 10 -33 29 -39 43 -9 20 -17 24 -40 20 -17 -3 -26 0 -22 6 3
5 -7 23 -22 39 -16 17 -29 38 -29 47 0 11 -7 16 -18 14 -9 -2 -16 1 -15 5 3 9
-54 68 -87 89 -12 8 -29 12 -37 9 -20 -8 -42 20 -33 42 5 10 7 22 6 26 -1 5 3
6 9 2 6 -3 8 -11 5 -16 -3 -5 0 -6 8 -3 14 5 17 47 4 60 -4 4 -2 13 5 21 8 11
7 12 -6 7 -17 -7 -23 11 -6 21 5 3 7 11 4 18 -2 7 5 22 16 32 20 19 21 19 14
-1 -7 -17 -6 -18 10 -5 16 14 17 16 1 27 -12 9 -13 13 -3 17 22 9 36 8 44 -4z
m684 -3 c0 -2 -6 -9 -14 -15 -11 -9 -16 -9 -22 0 -4 7 -3 9 4 5 6 -3 13 -2 17
4 6 10 15 14 15 6z m-640 -16 c0 -5 -4 -10 -10 -10 -5 0 -10 5 -10 10 0 6 5
10 10 10 6 0 10 -4 10 -10z m80 0 c0 -5 -4 -10 -10 -10 -5 0 -10 5 -10 10 0 6
5 10 10 10 6 0 10 -4 10 -10z m90 5 c0 -2 -6 -8 -13 -14 -10 -8 -14 -7 -14 2
0 8 6 14 14 14 7 0 13 -1 13 -2z m487 -17 c-3 -8 -6 -5 -6 6 -1 11 2 17 5 13
3 -3 4 -12 1 -19z m-560 -40 c2 -17 0 -19 -7 -8 -5 8 -6 18 -4 22 8 12 10 10
11 -14z m83 -3 c14 -19 14 -19 -2 -6 -10 7 -18 18 -18 24 0 6 1 8 3 6 1 -2 9
-13 17 -24z m505 17 c14 -9 17 -55 4 -46 -6 3 -8 12 -5 20 3 7 -3 18 -12 23
-9 6 -12 10 -7 11 6 0 15 -4 20 -8z m-473 -19 c-1 -4 7 -17 16 -28 17 -20 17
-20 -4 -2 -11 9 -21 24 -21 32 0 8 2 13 5 11 2 -2 4 -8 4 -13z m-78 -18 c-4
-8 -11 -12 -16 -9 -6 4 -5 10 3 15 19 12 19 11 13 -6z m-295 -28 c-7 -15 -16
-24 -21 -21 -5 3 -5 11 1 18 6 7 7 17 3 21 -4 5 -1 5 6 1 7 -4 12 -2 12 5 0 7
2 10 5 7 3 -3 0 -17 -6 -31z m335 -3 c3 -8 2 -12 -4 -9 -6 3 -10 10 -10 16 0
14 7 11 14 -7z m526 -6 c0 -6 -6 -5 -15 2 -8 7 -15 14 -15 16 0 2 7 1 15 -2 8
-4 15 -11 15 -16z m-528 -22 c10 1 21 -3 25 -8 3 -7 1 -8 -5 -4 -14 8 -15 4
-6 -18 3 -9 11 -13 17 -9 6 4 7 1 2 -7 -6 -10 -11 -10 -20 3 -7 9 -15 14 -19
10 -4 -4 -4 1 0 10 4 12 2 17 -7 15 -8 -2 -14 7 -16 22 -2 22 -1 22 5 4 4 -13
14 -20 24 -18z m48 18 c0 -8 -19 -13 -24 -6 -3 5 1 9 9 9 8 0 15 -2 15 -3z
m56 -6 c4 -7 4 -10 -1 -6 -4 4 -15 2 -24 -5 -14 -11 -14 -10 -2 6 16 20 18 21
27 5z m-53 -23 c-3 -9 -8 -14 -10 -11 -3 3 -2 9 2 15 9 16 15 13 8 -4z m-49
-48 c4 4 4 -1 0 -11 -7 -17 -5 -17 24 -2 23 12 33 13 38 4 4 -7 3 -8 -4 -4 -7
4 -12 2 -12 -3 0 -6 -3 -10 -7 -9 -5 1 -19 -4 -32 -11 -13 -7 -21 -9 -18 -3 4
5 0 18 -8 28 -8 10 -14 24 -14 29 0 6 6 2 13 -7 7 -10 16 -15 20 -11z m631
-277 c4 -6 11 -8 16 -5 5 4 9 2 9 -4 0 -5 -4 -12 -10 -16 -5 -3 -7 -12 -3 -20
3 -8 0 -15 -7 -15 -6 0 -9 4 -6 8 3 5 -5 15 -18 22 -15 8 -23 20 -22 35 1 18
4 21 18 14 9 -5 20 -14 23 -19z m55 -45 c-7 -9 -15 -13 -17 -11 -7 7 7 26 19
26 6 0 6 -6 -2 -15z m-618 -17 c24 4 31 -14 11 -29 -14 -12 -16 -12 -8 0 6 11
4 13 -7 8 -9 -3 -21 0 -27 6 -15 15 -14 30 2 20 6 -4 19 -6 29 -5z m583 -28
c0 -8 -7 -15 -15 -15 -8 0 -22 -5 -30 -10 -13 -8 -13 -6 -2 8 8 9 11 20 8 25
-3 5 5 9 17 8 12 -1 22 -7 22 -16z m5 -34 c0 -11 -19 -15 -25 -6 -3 5 1 10 9
10 9 0 16 -2 16 -4z m-169 -53 c-12 -20 -14 -14 -5 12 4 9 9 14 11 11 3 -2 0
-13 -6 -23z m144 8 c3 -5 2 -12 -3 -15 -5 -3 -9 1 -9 9 0 17 3 19 12 6z m-155
-35 c0 -3 -4 -8 -10 -11 -5 -3 -10 -1 -10 4 0 6 5 11 10 11 6 0 10 -2 10 -4z
m146 -11 c-3 -9 4 -20 19 -27 l24 -13 -24 -47 c-13 -25 -22 -49 -19 -52 2 -3
1 -4 -2 -1 -4 2 -16 0 -28 -6 l-21 -10 21 18 c24 20 25 52 4 78 -11 14 -11 16
1 13 8 -2 14 6 15 22 1 34 3 40 10 40 3 0 4 -7 0 -15z m-122 -14 c3 -4 -4 -17
-17 -27 l-22 -19 20 24 c18 22 18 24 2 18 -11 -4 -16 -3 -12 3 8 12 22 13 29
1z m-48 -23 c3 -4 -1 -5 -10 -4 -8 1 -18 5 -22 8 -3 4 1 5 10 4 8 -1 18 -5 22
-8z m16 -60 c-8 -8 -9 -4 -5 13 4 13 8 18 11 10 2 -7 -1 -18 -6 -23z m-67 2
c3 -5 1 -10 -4 -10 -6 0 -11 5 -11 10 0 6 2 10 4 10 3 0 8 -4 11 -10z m40 -10
c10 -11 16 -20 13 -20 -3 0 -13 9 -23 20 -10 11 -16 20 -13 20 3 0 13 -9 23
-20z m42 -7 c-4 -3 1 -12 11 -20 15 -13 15 -13 -6 -3 -19 9 -23 30 -5 30 4 0
3 -3 0 -7z"/>
<path d="M150 1060 c0 -5 5 -10 10 -10 6 0 10 5 10 10 0 6 -4 10 -10 10 -5 0
-10 -4 -10 -10z"/>
<path d="M160 1043 c-16 -16 -18 -22 -7 -17 18 7 24 -11 7 -21 -7 -4 -7 -11
-2 -18 5 -7 8 -20 7 -30 -2 -9 1 -15 6 -11 5 3 9 2 9 -3 0 -18 -18 -34 -38
-36 -11 0 -18 -5 -15 -9 2 -5 13 -6 23 -3 12 4 32 -8 64 -39 28 -28 48 -41 52
-34 4 7 2 8 -4 4 -7 -4 -12 -3 -12 2 0 14 11 21 26 15 10 -4 11 -10 4 -23 -11
-20 4 -38 15 -20 3 5 14 10 23 10 15 -1 15 -2 -1 -11 -18 -10 -18 -12 -1 -30
11 -12 13 -19 5 -19 -7 0 -9 -5 -5 -11 4 -8 9 -7 15 2 5 8 9 12 10 9 6 -34 9
-43 18 -54 6 -7 24 -12 39 -10 20 2 29 -2 30 -11 1 -8 3 -21 4 -28 2 -17 28
-42 28 -27 0 6 5 8 10 5 6 -4 8 -10 5 -15 -4 -7 3 -7 34 -1 2 1 -2 8 -9 16 -7
8 -9 15 -4 15 5 0 -2 9 -15 19 -20 15 -22 21 -12 37 11 18 11 17 6 -3 -4 -13
-2 -23 3 -23 5 0 9 10 8 23 -1 16 -7 21 -21 19 -19 -2 -19 -2 -2 11 17 14 24
33 8 23 -10 -6 -61 38 -61 53 0 5 5 13 10 16 7 4 6 14 -2 28 -7 12 -13 27 -14
32 0 6 -2 14 -2 19 -1 5 -8 3 -16 -3 -12 -10 -17 -8 -26 8 -12 24 -27 28 -27
7 0 -16 44 -39 58 -31 5 3 6 -1 3 -9 -7 -17 -24 -22 -24 -7 0 5 -8 12 -17 15
-15 6 -15 4 2 -14 10 -11 25 -19 33 -18 11 2 16 -7 17 -34 1 -21 -2 -38 -7
-38 -5 0 -7 4 -3 9 3 6 -4 8 -15 6 -12 -2 -18 0 -15 6 4 5 1 8 -7 7 -8 -2 -13
6 -12 20 1 17 -2 20 -9 13 -6 -6 -16 -11 -21 -11 -6 0 -4 5 4 10 9 6 10 10 3
10 -7 0 -17 -8 -22 -17 -6 -10 -11 -13 -11 -6 0 6 5 15 11 18 7 5 5 14 -4 29
-11 16 -12 28 -5 42 9 19 9 19 -6 0 -9 -11 -16 -14 -16 -7 0 7 -4 10 -9 6 -12
-7 -34 32 -26 45 3 5 -4 7 -15 5 -13 -3 -18 0 -14 7 4 7 3 8 -4 4 -7 -4 -10 1
-7 14 2 11 -1 22 -6 25 -5 4 -7 11 -4 16 4 5 1 9 -5 9 -6 0 -8 5 -4 11 3 6 9
7 13 3 9 -13 31 -16 31 -4 0 5 -8 13 -17 18 -13 6 -25 2 -43 -15z m25 -61 c-1
-9 2 -22 7 -29 5 -7 7 -16 4 -21 -3 -5 1 -9 8 -9 8 0 12 7 9 16 -2 9 3 4 12
-11 8 -15 24 -32 35 -38 11 -6 24 -20 31 -31 9 -19 9 -20 -10 -10 -14 8 -22 8
-27 0 -5 -9 -10 -8 -18 2 -6 8 -24 23 -40 33 -16 10 -25 21 -20 25 14 10 16
32 3 47 -6 8 -8 14 -4 14 4 0 2 6 -4 13 -6 8 -8 17 -5 20 11 11 22 -2 19 -21z
m185 -207 c0 4 6 2 14 -4 8 -6 18 -11 22 -9 5 1 19 -4 32 -11 18 -9 21 -15 12
-26 -7 -9 -8 -15 -1 -19 6 -4 8 -13 5 -20 -3 -8 5 -21 18 -30 12 -9 19 -16 14
-16 -5 0 -2 -8 5 -17 13 -17 13 -17 -7 0 -11 9 -24 14 -27 10 -6 -6 -11 11 -8
30 0 4 -3 7 -8 7 -6 0 -8 9 -6 20 4 20 -9 28 -19 12 -6 -10 -40 -9 -43 1 -8
21 -2 29 12 17 8 -7 15 -11 16 -9 6 31 6 39 -2 39 -5 0 -9 -6 -9 -12 0 -9 -3
-8 -9 2 -6 8 -8 17 -6 20 2 4 -2 7 -10 7 -11 0 -12 -3 -3 -14 8 -10 8 -17 -2
-26 -7 -7 -10 -7 -7 -1 3 6 -5 22 -18 36 -27 30 -12 46 18 20 9 -8 17 -12 17
-7z"/>
<path d="M195 900 c10 -16 43 -31 49 -21 3 5 -2 15 -11 22 -12 10 -14 10 -9 2
4 -7 2 -13 -3 -13 -6 0 -11 5 -11 10 0 6 -5 10 -11 10 -5 0 -7 -4 -4 -10z"/>
<path d="M249 863 c-12 -16 -12 -17 2 -6 9 7 20 9 24 5 5 -4 5 -1 1 6 -9 16
-11 15 -27 -5z"/>
<path d="M415 742 c1 -9 -3 -24 -9 -32 -6 -8 1 -6 14 5 14 11 26 20 27 20 1 1
-6 6 -16 12 -16 10 -19 9 -16 -5z"/>
<path d="M231 1044 c-6 -14 -9 -31 -5 -37 3 -7 -1 -4 -9 6 -10 12 -17 14 -22
8 -3 -6 -1 -11 5 -11 7 0 10 -7 7 -15 -6 -14 8 -30 28 -30 5 0 10 -7 11 -15 2
-33 4 -38 17 -36 6 1 18 5 25 10 19 11 25 1 14 -21 -12 -22 7 -53 35 -57 11
-2 18 -11 17 -24 -1 -12 3 -19 7 -16 5 3 6 10 3 16 -4 7 -2 8 5 4 6 -4 9 -11
6 -16 -3 -5 -1 -11 5 -15 5 -3 10 -3 11 2 0 4 2 16 4 25 2 10 -2 15 -9 12 -15
-6 -55 36 -61 64 -3 16 4 26 23 37 15 8 23 14 19 15 -5 0 -17 -5 -29 -11 -16
-9 -24 -7 -42 10 -22 21 -42 29 -32 13 2 -4 0 -14 -5 -22 -7 -11 -8 -6 -4 15
2 16 13 36 22 43 15 11 19 10 27 -8 9 -20 26 -28 26 -12 0 10 -43 52 -53 52
-4 0 -6 -5 -4 -11 3 -15 -15 -21 -32 -10 -10 7 -11 13 -1 31 6 12 10 24 7 26
-2 2 -9 -8 -16 -22z m16 -58 c0 -15 -21 -16 -34 -1 -4 4 -3 5 4 1 6 -3 14 -2
18 4 8 14 12 13 12 -4z m34 -59 c-10 -9 -11 -8 -5 6 3 10 9 15 12 12 3 -3 0
-11 -7 -18z m44 -57 c10 -11 16 -20 13 -20 -3 0 -13 9 -23 20 -10 11 -16 20
-13 20 3 0 13 -9 23 -20z"/>
<path d="M275 980 c3 -5 10 -10 16 -10 5 0 9 5 9 10 0 6 -7 10 -16 10 -8 0
-12 -4 -9 -10z"/>
<path d="M433 834 c3 -4 2 -14 -3 -23 -14 -27 3 -45 29 -32 20 11 20 13 5 36
-9 14 -21 25 -27 25 -6 0 -7 -3 -4 -6z m26 -45 c-15 -9 -32 -2 -24 11 3 5 13
6 21 3 12 -4 13 -8 3 -14z"/>
<path d="M470 820 c0 -5 5 -10 10 -10 6 0 10 5 10 10 0 6 -4 10 -10 10 -5 0
-10 -4 -10 -10z"/>
<path d="M1046 632 c-3 -6 1 -15 8 -21 8 -7 17 -8 20 -3 3 6 -1 15 -8 21 -8 7
-17 8 -20 3z"/>
<path d="M1063 384 c4 -4 2 -13 -4 -20 -13 -16 2 -26 21 -13 13 7 13 9 0 9
-12 0 -12 2 -2 9 11 6 10 10 -4 15 -10 4 -15 4 -11 0z"/>
<path d="M1010 1242 c0 -6 4 -14 10 -17 5 -3 8 -19 6 -35 -2 -20 0 -27 8 -23
6 3 5 0 -1 -8 -19 -19 -16 -27 13 -42 17 -9 23 -17 15 -21 -6 -4 -11 -2 -11 3
0 6 -5 11 -12 11 -6 0 -8 -3 -5 -6 3 -4 2 -15 -3 -25 -7 -12 -7 -20 0 -24 6
-4 7 -11 4 -17 -4 -6 -3 -8 3 -5 5 3 10 0 10 -8 0 -8 -5 -15 -11 -15 -6 0 -6
-4 2 -8 9 -6 5 -12 -15 -20 -26 -11 -27 -11 -9 3 18 14 15 20 -8 16 -5 -1 -1
9 8 24 9 14 13 25 9 25 -19 -1 -28 -17 -28 -50 0 -28 4 -34 18 -32 19 3 23 -8
8 -23 -6 -6 -2 -19 10 -35 13 -16 19 -19 15 -8 -3 10 -1 20 3 22 7 5 8 -25 2
-68 0 -5 -7 -3 -14 3 -8 6 -18 7 -22 3 -5 -4 -5 -2 -1 5 4 7 14 9 24 6 15 -6
15 -4 -2 15 -11 12 -21 22 -24 22 -3 0 -2 -3 1 -6 3 -4 2 -15 -3 -24 -7 -12
-6 -21 4 -29 7 -6 15 -9 18 -6 2 3 5 -1 6 -7 0 -7 3 -26 7 -43 6 -28 5 -29 -8
-10 -8 10 -13 25 -10 32 3 7 1 13 -4 13 -14 0 -12 -33 3 -50 16 -19 13 -48 -7
-61 -11 -7 -11 -9 -1 -9 7 0 10 -5 6 -12 -4 -6 -3 -8 3 -5 6 4 16 0 23 -8 7
-8 17 -12 22 -9 5 3 19 -4 30 -16 11 -12 22 -19 25 -16 3 3 -5 14 -18 25 -13
11 -19 20 -12 21 6 0 15 -5 18 -10 4 -6 10 -8 15 -5 5 3 12 -4 15 -16 4 -11 9
-18 12 -16 8 8 -17 48 -26 42 -5 -2 -15 3 -22 12 -12 15 -12 16 3 10 13 -4 23
1 34 19 9 13 14 27 10 31 -3 3 -6 0 -6 -7 0 -9 -6 -8 -20 5 -25 23 -25 31 1
38 17 5 19 9 9 27 -8 16 -18 20 -39 17 -25 -4 -29 -2 -27 19 0 13 6 22 11 20
6 -2 9 -9 8 -15 -2 -6 2 -11 7 -11 14 0 13 13 -2 28 -10 10 -8 12 11 10 14 -2
26 3 28 12 4 13 3 13 -5 1 -9 -12 -13 -12 -27 2 -9 10 -13 17 -8 18 4 1 17 2
27 3 20 1 36 26 16 26 -6 0 -8 -4 -5 -10 3 -5 -1 -10 -9 -10 -22 0 -20 13 4
35 14 13 20 14 20 5 0 -7 3 -10 6 -7 11 10 -25 57 -39 51 -7 -2 -13 4 -14 16
-2 17 1 18 18 10 15 -9 21 -7 25 5 4 9 4 19 0 22 -3 4 -6 -1 -6 -10 0 -10 -5
-14 -15 -11 -8 4 -15 10 -15 16 0 5 5 6 10 3 6 -3 10 -2 10 4 0 5 -9 13 -20
16 -11 4 -18 11 -15 16 4 5 19 3 35 -6 19 -10 31 -11 35 -5 4 6 3 9 -2 8 -14
-4 -53 13 -53 23 0 12 17 12 25 -1 3 -5 14 -10 23 -9 15 0 15 1 -1 8 -17 6
-17 8 -3 20 9 7 16 18 16 24 0 6 -7 1 -16 -11 -13 -18 -19 -21 -30 -11 -11 9
-14 9 -14 -1 0 -23 -13 -1 -16 26 l-3 27 21 -23 c13 -14 24 -18 30 -12 13 13
0 35 -17 28 -8 -3 -19 3 -27 11 -11 14 -11 16 3 11 9 -3 22 -2 30 3 11 8 9 9
-6 7 -13 -2 -19 2 -17 12 2 11 -1 11 -11 -2 -15 -19 -33 -25 -22 -8 6 9 -8 14
-29 11 -4 -1 -14 4 -22 10 -9 8 -14 8 -14 1z m75 -72 c-1 -14 3 -31 8 -37 6
-8 5 -18 -3 -28 -10 -12 -9 -16 4 -21 11 -4 13 -11 6 -23 -5 -10 -7 -26 -5
-37 2 -10 4 -23 4 -28 1 -5 7 -3 15 3 10 9 16 9 21 1 7 -11 -19 -47 -54 -77
-10 -9 -11 -13 -3 -13 16 0 15 -17 -1 -23 -9 -3 -13 2 -12 16 3 30 -4 40 -20
27 -10 -8 -15 -8 -21 1 -4 7 -3 9 3 6 6 -4 14 1 18 10 3 10 1 19 -6 22 -7 2 3
12 22 23 23 13 26 17 10 12 -21 -5 -22 -4 -10 9 8 8 18 12 23 9 5 -3 6 0 2 7
-6 9 -12 9 -24 -1 -10 -7 -14 -8 -9 -3 4 4 1 16 -7 24 -10 11 -12 21 -6 31 8
13 10 13 10 1 0 -11 4 -10 14 4 13 19 11 49 -3 41 -4 -3 -13 -1 -21 4 -10 6
-11 12 -2 22 6 8 7 19 2 27 -5 8 -4 21 2 31 10 16 12 16 27 1 9 -9 16 -27 16
-41z m55 0 c0 -5 -2 -10 -4 -10 -3 0 -8 5 -11 10 -3 6 -1 10 4 10 6 0 11 -4
11 -10z m-73 -322 c-2 -20 2 -23 29 -21 21 2 34 -2 38 -12 3 -9 0 -15 -9 -15
-25 0 -27 -21 -4 -46 15 -16 19 -28 13 -34 -7 -7 -17 -3 -30 11 -19 22 -19 22
1 16 18 -6 18 -5 -2 9 -20 14 -21 18 -8 37 13 20 12 22 -9 22 -12 0 -23 -5
-23 -12 0 -6 7 -8 16 -5 13 5 14 3 4 -9 -10 -12 -10 -18 0 -29 10 -10 9 -12
-5 -7 -10 3 -20 1 -24 -5 -4 -7 -3 -8 4 -4 7 4 12 2 12 -3 0 -6 -5 -11 -11
-11 -8 0 -9 -4 0 -13 6 -8 7 -18 3 -22 -4 -5 -2 -5 5 -1 7 4 10 12 7 20 -3 7
2 13 11 13 19 0 19 -11 -1 -32 -15 -15 -18 -15 -35 1 -10 9 -15 22 -12 28 11
16 15 36 17 81 3 54 5 65 11 65 3 0 4 -10 2 -22z"/>
<path d="M1046 1202 c-3 -5 1 -15 9 -22 16 -13 21 -32 8 -27 -5 1 -9 -2 -11
-7 -1 -6 4 -11 11 -12 9 -1 13 6 12 20 -1 11 -4 22 -5 24 -1 1 -3 6 -4 11 -2
16 -14 23 -20 13z"/>
<path d="M1066 1074 c-3 -9 -11 -12 -18 -8 -10 5 -10 4 -1 -6 9 -10 15 -10 27
3 9 9 12 18 7 21 -5 3 -12 -1 -15 -10z"/>
<path d="M1070 979 c0 -6 -5 -7 -12 -3 -7 5 -8 3 -2 -7 5 -8 9 -17 9 -21 0 -5
3 -8 8 -8 4 0 10 0 13 0 4 0 0 8 -7 17 -12 14 -12 16 2 11 9 -3 22 -2 30 3 8
5 10 9 4 10 -5 0 -18 2 -27 4 -10 2 -18 -1 -18 -6z"/>
<path d="M1155 1209 c-4 -6 -5 -12 -2 -15 2 -3 7 2 10 11 7 17 1 20 -8 4z"/>
<path d="M990 1195 c-12 -15 -12 -19 5 -31 17 -12 17 -14 2 -14 -9 0 -17 -4
-17 -10 0 -5 8 -10 18 -10 9 0 13 -4 7 -8 -15 -11 -17 -32 -2 -32 9 0 8 -3 -2
-9 -8 -5 -10 -14 -6 -22 6 -9 11 -6 18 12 14 32 15 42 5 55 -4 6 -6 21 -3 34
2 12 1 29 -4 37 -6 12 -10 12 -21 -2z"/>
<path d="M1177 1189 c7 -7 15 -10 18 -7 3 3 -2 9 -12 12 -14 6 -15 5 -6 -5z"/>
<path d="M1173 1136 c-4 -5 -1 -6 7 -1 10 6 12 3 7 -11 -7 -18 -6 -18 8 1 9
11 18 18 20 15 2 -3 6 -3 9 1 3 3 -6 5 -20 5 -14 0 -28 -4 -31 -10z"/>
<path d="M1220 1100 c-9 -6 -10 -10 -3 -10 6 0 15 5 18 10 8 12 4 12 -15 0z"/>
<path d="M1174 1079 c-5 -8 -3 -9 6 -4 9 6 12 4 8 -7 -4 -9 0 -15 8 -15 18 0
18 11 0 26 -11 9 -16 9 -22 0z"/>
<path d="M1150 1020 c0 -5 5 -10 10 -10 6 0 10 5 10 10 0 6 -4 10 -10 10 -5 0
-10 -4 -10 -10z"/>
<path d="M1226 959 c2 -4 13 -7 24 -6 23 2 17 10 -10 12 -10 1 -17 -2 -14 -6z"/>
<path d="M1170 940 c0 -5 5 -10 10 -10 6 0 10 5 10 10 0 6 -4 10 -10 10 -5 0
-10 -4 -10 -10z"/>
<path d="M1246 922 c-3 -5 1 -9 9 -9 8 0 12 4 9 9 -3 4 -7 8 -9 8 -2 0 -6 -4
-9 -8z"/>
<path d="M1150 909 c0 -5 5 -7 10 -4 6 3 10 8 10 11 0 2 -4 4 -10 4 -5 0 -10
-5 -10 -11z"/>
<path d="M90 860 c0 -5 5 -10 10 -10 6 0 10 5 10 10 0 6 -4 10 -10 10 -5 0
-10 -4 -10 -10z"/>
<path d="M1120 860 c0 -5 5 -10 10 -10 6 0 10 5 10 10 0 6 -4 10 -10 10 -5 0
-10 -4 -10 -10z"/>
<path d="M1171 854 c0 -11 3 -14 6 -6 3 7 2 16 -1 19 -3 4 -6 -2 -5 -13z"/>
<path d="M1193 847 c0 -8 6 -14 14 -14 9 0 10 4 2 14 -6 7 -12 13 -14 13 -1 0
-2 -6 -2 -13z"/>
<path d="M28 843 c6 -2 9 -10 6 -15 -4 -7 -2 -8 5 -4 13 9 5 26 -12 25 -9 0
-8 -2 1 -6z"/>
<path d="M1151 845 c1 -19 18 -51 18 -35 0 8 -4 22 -9 30 -5 8 -9 11 -9 5z"/>
<path d="M1230 845 c0 -7 30 -13 34 -7 3 4 -4 9 -15 9 -10 1 -19 0 -19 -2z"/>
<path d="M76 823 c-6 -14 -5 -15 5 -6 7 7 10 15 7 18 -3 3 -9 -2 -12 -12z"/>
<path d="M110 800 c0 -5 5 -10 10 -10 6 0 10 5 10 10 0 6 -4 10 -10 10 -5 0
-10 -4 -10 -10z"/>
<path d="M1201 796 c-9 -11 -9 -16 1 -22 7 -4 10 -4 6 1 -4 4 -3 14 3 22 6 7
9 13 6 13 -2 0 -10 -6 -16 -14z"/>
<path d="M201 791 c-7 -5 -12 -13 -10 -18 2 -5 12 -1 22 9 18 19 12 24 -12 9z"/>
<path d="M16 782 c-3 -5 1 -9 9 -9 8 0 12 4 9 9 -3 4 -7 8 -9 8 -2 0 -6 -4 -9
-8z"/>
<path d="M56 778 c3 -5 10 -6 15 -3 13 9 11 12 -6 12 -8 0 -12 -4 -9 -9z"/>
<path d="M91 774 c0 -11 3 -14 6 -6 3 7 2 16 -1 19 -3 4 -6 -2 -5 -13z"/>
<path d="M152 776 c7 -8 15 -12 17 -11 5 6 -10 25 -20 25 -5 0 -4 -6 3 -14z"/>
<path d="M1138 778 c-9 -5 -6 -7 9 -5 12 2 25 6 28 8 8 9 -23 6 -37 -3z"/>
<path d="M1176 762 c-3 -4 4 -9 15 -9 23 -2 25 3 4 10 -8 4 -16 3 -19 -1z"/>
<path d="M93 733 c0 -9 4 -10 14 -2 7 6 13 12 13 14 0 1 -6 2 -13 2 -8 0 -14
-6 -14 -14z"/>
<path d="M170 740 c0 -5 5 -10 10 -10 6 0 10 5 10 10 0 6 -4 10 -10 10 -5 0
-10 -4 -10 -10z"/>
<path d="M1226 738 c3 -5 10 -6 15 -3 13 9 11 12 -6 12 -8 0 -12 -4 -9 -9z"/>
<path d="M1170 731 c0 -6 4 -13 10 -16 6 -3 7 1 4 9 -7 18 -14 21 -14 7z"/>
<path d="M190 716 c0 -2 7 -9 15 -16 9 -7 15 -8 15 -2 0 5 -7 12 -15 16 -8 3
-15 4 -15 2z"/>
<path d="M293 702 c15 -10 24 -22 20 -25 -3 -4 -1 -7 5 -7 7 0 12 4 12 9 0 12
-40 41 -55 41 -5 0 2 -8 18 -18z"/>
<path d="M76 698 c3 -5 10 -6 15 -3 13 9 11 12 -6 12 -8 0 -12 -4 -9 -9z"/>
<path d="M114 698 c-4 -7 -4 -10 1 -6 4 4 15 2 24 -5 14 -11 14 -10 2 6 -16
20 -18 21 -27 5z"/>
<path d="M1150 700 c0 -5 5 -10 10 -10 6 0 10 5 10 10 0 6 -4 10 -10 10 -5 0
-10 -4 -10 -10z"/>
<path d="M1210 706 c0 -2 7 -7 16 -10 8 -3 12 -2 9 4 -6 10 -25 14 -25 6z"/>
<path d="M1275 701 c-3 -5 -2 -12 3 -15 5 -3 9 1 9 9 0 17 -3 19 -12 6z"/>
<path d="M227 688 c-4 -13 -1 -16 14 -13 15 3 19 0 15 -11 -4 -10 -2 -13 6 -8
8 5 9 1 4 -12 -5 -14 -4 -16 4 -8 14 14 -5 58 -20 49 -4 -3 -10 0 -12 7 -3 8
-7 6 -11 -4z"/>
<path d="M173 667 c0 -7 9 -14 19 -14 10 -1 18 3 18 9 0 6 -3 8 -7 5 -3 -4
-11 -2 -18 3 -8 7 -12 6 -12 -3z"/>
<path d="M76 662 c-3 -5 1 -9 9 -9 8 0 12 4 9 9 -3 4 -7 8 -9 8 -2 0 -6 -4 -9
-8z"/>
<path d="M114 656 c1 -8 5 -18 8 -22 4 -3 5 1 4 10 -1 8 -5 18 -8 22 -4 3 -5
-1 -4 -10z"/>
<path d="M234 615 c1 -14 10 -33 21 -43 19 -16 19 -16 3 3 -8 11 -14 28 -13
37 2 10 0 20 -4 23 -4 2 -7 -7 -7 -20z"/>
<path d="M67 619 c7 -7 15 -10 18 -7 3 3 -2 9 -12 12 -14 6 -15 5 -6 -5z"/>
<path d="M1135 622 c2 -3 16 -6 29 -6 13 -1 32 -8 42 -16 17 -14 18 -13 7 1
-7 9 -11 18 -9 20 3 2 -13 5 -35 5 -22 1 -37 -1 -34 -4z"/>
<path d="M267 595 c3 -8 9 -12 14 -9 12 7 11 11 -5 17 -10 4 -13 1 -9 -8z"/>
<path d="M320 590 c-6 -11 -8 -20 -6 -20 3 0 10 9 16 20 6 11 8 20 6 20 -3 0
-10 -9 -16 -20z"/>
<path d="M375 601 c-2 -5 7 -8 20 -8 14 0 25 2 25 6 0 10 -39 11 -45 2z"/>
<path d="M1235 600 c3 -5 8 -10 11 -10 2 0 4 5 4 10 0 6 -5 10 -11 10 -5 0 -7
-4 -4 -10z"/>
<path d="M353 578 c1 -16 5 -28 9 -28 10 0 9 9 -2 35 -8 17 -8 16 -7 -7z"/>
<path d="M1015 589 c-4 -5 -12 -6 -18 -2 -7 4 -5 -1 3 -11 12 -16 12 -19 -4
-28 -13 -8 -15 -13 -5 -24 6 -8 8 -14 4 -14 -4 0 -2 -7 5 -15 10 -12 10 -19 2
-27 -9 -9 -12 -9 -12 1 0 11 -3 11 -15 1 -8 -7 -15 -17 -15 -22 0 -6 6 -6 14
1 10 9 15 8 19 -3 3 -7 1 -18 -4 -23 -7 -7 -1 -16 16 -27 28 -18 32 -1 5 21
-13 11 -12 12 5 7 l20 -7 -20 17 c-11 10 -15 15 -9 12 6 -3 19 3 28 12 15 17
14 20 -5 41 -14 15 -18 26 -11 34 5 7 8 23 6 37 -1 14 0 19 2 13 6 -15 24 -17
24 -4 0 13 -28 22 -35 10z m10 -99 c10 -11 16 -20 13 -20 -3 0 -13 9 -23 20
-10 11 -16 20 -13 20 3 0 13 -9 23 -20z"/>
<path d="M1161 593 c-1 -6 -4 -20 -7 -30 -5 -17 -5 -17 6 0 6 10 9 23 6 30 -3
9 -5 9 -5 0z"/>
<path d="M159 573 c-13 -16 -12 -17 4 -4 9 7 17 15 17 17 0 8 -8 3 -21 -13z"/>
<path d="M388 573 c7 -3 16 -2 19 1 4 3 -2 6 -13 5 -11 0 -14 -3 -6 -6z"/>
<path d="M410 555 c-7 -8 -16 -13 -20 -10 -5 3 -11 1 -14 -4 -4 -5 0 -8 8 -7
18 3 64 35 50 35 -6 1 -17 -6 -24 -14z"/>
<path d="M1192 561 c2 -19 -4 -24 -13 -11 -8 12 -10 12 -7 1 2 -8 12 -15 22
-17 10 -1 15 0 12 3 -3 4 -1 11 4 18 7 8 5 12 -5 12 -7 0 -14 -3 -13 -6z"/>
<path d="M294 545 c1 -8 6 -18 11 -22 4 -5 5 -2 0 6 -6 11 -4 13 8 8 9 -3 19
-1 23 6 4 7 4 9 -1 5 -4 -4 -16 -3 -25 2 -14 7 -18 6 -16 -5z"/>
<path d="M1132 536 c7 -8 15 -12 17 -11 5 6 -10 25 -20 25 -5 0 -4 -6 3 -14z"/>
<path d="M1275 540 c3 -5 8 -10 11 -10 2 0 4 5 4 10 0 6 -5 10 -11 10 -5 0 -7
-4 -4 -10z"/>
<path d="M395 519 c-18 -9 -18 -9 3 -5 16 3 22 1 19 -8 -3 -7 1 -13 8 -13 10
0 11 5 4 19 -5 10 -11 18 -12 17 -1 0 -11 -5 -22 -10z"/>
<path d="M460 501 c-6 -12 -7 -22 -3 -23 4 0 13 -2 18 -3 6 -2 16 -3 23 -4 7
0 11 -5 8 -10 -3 -5 3 -19 13 -32 17 -22 17 -24 2 -37 -14 -11 -13 -11 7 -2
22 11 23 13 7 30 -9 10 -17 24 -19 32 -4 26 -18 39 -37 33 -14 -5 -17 -3 -13
10 4 10 12 14 23 9 20 -9 74 -14 67 -6 -4 3 -16 6 -29 7 -12 1 -30 5 -39 9
-11 5 -20 1 -28 -13z"/>
<path d="M153 495 c0 -8 4 -12 9 -9 5 3 6 10 3 15 -9 13 -12 11 -12 -6z"/>
<path d="M236 502 c-3 -5 1 -9 9 -9 8 0 12 4 9 9 -3 4 -7 8 -9 8 -2 0 -6 -4
-9 -8z"/>
<path d="M274 496 c1 -8 5 -18 8 -22 4 -3 5 1 4 10 -1 8 -5 18 -8 22 -4 3 -5
-1 -4 -10z"/>
<path d="M355 500 c-3 -5 -1 -10 4 -10 6 0 11 5 11 10 0 6 -2 10 -4 10 -3 0
-8 -4 -11 -10z"/>
<path d="M1155 500 c3 -5 8 -10 11 -10 2 0 4 5 4 10 0 6 -5 10 -11 10 -5 0 -7
-4 -4 -10z"/>
<path d="M393 465 c0 -8 4 -15 9 -15 4 0 8 4 8 9 0 6 -4 12 -8 15 -5 3 -9 -1
-9 -9z"/>
<path d="M420 476 c0 -2 7 -7 16 -10 8 -3 12 -2 9 4 -6 10 -25 14 -25 6z"/>
<path d="M543 469 c9 -6 15 -15 11 -21 -4 -6 -10 -5 -15 3 -5 8 -9 9 -9 3 0
-17 27 -37 42 -31 8 3 6 6 -5 6 -10 1 -15 6 -12 12 4 6 14 8 24 5 9 -4 7 2 -8
14 -13 11 -28 20 -35 20 -6 0 -3 -5 7 -11z"/>
<path d="M1155 470 c-3 -6 1 -7 9 -4 18 7 21 14 7 14 -6 0 -13 -4 -16 -10z"/>
<path d="M470 456 c0 -2 8 -10 18 -17 15 -13 16 -12 3 4 -13 16 -21 21 -21 13z"/>
<path d="M437 428 c20 -22 24 -23 16 -1 -5 12 -3 14 8 8 8 -4 11 -4 6 0 -4 5
-16 9 -27 10 -19 2 -19 1 -3 -17z"/>
<path d="M1148 443 c7 -3 16 -2 19 1 4 3 -2 6 -13 5 -11 0 -14 -3 -6 -6z"/>
<path d="M319 413 c-13 -16 -12 -17 4 -4 16 13 21 21 13 21 -2 0 -10 -8 -17
-17z"/>
<path d="M410 421 c0 -6 4 -13 10 -16 6 -3 7 1 4 9 -7 18 -14 21 -14 7z"/>
<path d="M599 417 c8 -9 10 -21 6 -25 -4 -4 -10 -1 -12 6 -3 6 -9 12 -14 12
-5 0 -4 -9 3 -20 16 -24 24 -25 32 -3 4 10 0 23 -11 32 -16 15 -16 15 -4 -2z"/>
<path d="M1151 413 c7 -12 15 -20 18 -17 3 2 -3 12 -13 22 -17 16 -18 16 -5
-5z"/>
<path d="M1176 418 c3 -4 11 -5 19 -1 21 7 19 12 -4 10 -11 0 -18 -5 -15 -9z"/>
<path d="M470 416 c0 -2 6 -9 14 -15 11 -9 16 -9 22 0 4 8 3 9 -4 5 -7 -4 -12
-2 -12 3 0 6 -4 11 -10 11 -5 0 -10 -2 -10 -4z"/>
<path d="M1246 398 c3 -5 10 -6 15 -3 13 9 11 12 -6 12 -8 0 -12 -4 -9 -9z"/>
<path d="M456 386 c3 -8 13 -17 22 -21 13 -5 13 -2 -3 15 -21 24 -26 25 -19 6z"/>
<path d="M550 379 c0 -5 5 -7 10 -4 6 3 10 8 10 11 0 2 -4 4 -10 4 -5 0 -10
-5 -10 -11z"/>
<path d="M985 380 c3 -5 10 -10 16 -10 5 0 9 5 9 10 0 6 -7 10 -16 10 -8 0
-12 -4 -9 -10z"/>
<path d="M1199 388 c-7 -23 -4 -35 7 -35 9 0 11 4 4 12 -5 7 -7 15 -3 18 3 4
3 7 0 7 -4 0 -7 -1 -8 -2z"/>
<path d="M507 355 c3 -8 9 -12 14 -9 12 7 11 11 -5 17 -10 4 -13 1 -9 -8z"/>
<path d="M560 350 c-6 -11 -8 -20 -6 -20 3 0 10 9 16 20 6 11 8 20 6 20 -3 0
-10 -9 -16 -20z"/>
<path d="M1230 365 c0 -7 30 -13 34 -7 3 4 -4 9 -15 9 -10 1 -19 0 -19 -2z"/>
<path d="M350 356 c0 -2 8 -10 18 -17 15 -13 16 -12 3 4 -13 16 -21 21 -21 13z"/>
<path d="M459 347 c8 -9 16 -15 19 -12 3 3 12 -1 21 -8 14 -11 14 -10 2 6 -8
9 -16 15 -19 12 -3 -3 -12 1 -21 8 -14 11 -14 10 -2 -6z"/>
<path d="M656 345 c4 -8 8 -15 10 -15 2 0 4 7 4 15 0 8 -4 15 -10 15 -5 0 -7
-7 -4 -15z"/>
<path d="M944 339 c0 -11 5 -18 10 -16 16 5 18 24 4 30 -9 3 -14 -3 -14 -14z"/>
<path d="M980 341 c-8 -16 -6 -21 11 -26 15 -5 18 -10 9 -15 -8 -5 -7 -9 6
-14 10 -4 15 -4 11 0 -4 4 -2 13 3 20 12 14 10 36 -5 46 -16 12 -24 9 -35 -11z
m33 -4 c3 -8 -1 -14 -8 -14 -7 0 -11 6 -8 14 3 7 6 13 8 13 2 0 5 -6 8 -13z"/>
<path d="M310 340 c0 -5 5 -10 11 -10 5 0 7 5 4 10 -3 6 -8 10 -11 10 -2 0 -4
-4 -4 -10z"/>
<path d="M620 336 c0 -2 7 -6 15 -10 8 -3 15 -1 15 4 0 6 -7 10 -15 10 -8 0
-15 -2 -15 -4z"/>
<path d="M1150 330 c0 -5 5 -10 11 -10 5 0 7 5 4 10 -3 6 -8 10 -11 10 -2 0
-4 -4 -4 -10z"/>
<path d="M534 305 c1 -8 6 -18 11 -22 4 -4 5 -3 2 4 -4 6 -2 13 5 15 8 3 6 6
-4 10 -10 4 -15 2 -14 -7z"/>
<path d="M470 300 c0 -5 5 -10 11 -10 5 0 7 5 4 10 -3 6 -8 10 -11 10 -2 0 -4
-4 -4 -10z"/>
<path d="M571 294 c0 -11 3 -14 6 -6 3 7 2 16 -1 19 -3 4 -6 -2 -5 -13z"/>
</g>
</svg>
