<?xml version="1.0" standalone="no"?>
<!DOCTYPE svg PUBLIC "-//W3C//DTD SVG 20010904//EN"
 "http://www.w3.org/TR/2001/REC-SVG-20010904/DTD/svg10.dtd">
<svg version="1.0" xmlns="http://www.w3.org/2000/svg"
 width="242.000000pt" height="242.000000pt" viewBox="0 0 242.000000 242.000000"
 preserveAspectRatio="xMidYMid meet">
<metadata>
Created by potrace 1.11, written by Peter Selinger 2001-2013
</metadata>
<g transform="translate(0.000000,242.000000) scale(0.100000,-0.100000)"
fill="#000000" stroke="none">
<path d="M1124 1907 c-71 -73 -349 -360 -619 -636 -270 -277 -489 -506 -488
-509 3 -7 308 -69 623 -127 41 -8 147 -28 235 -45 88 -18 180 -36 205 -40 52
-9 332 -64 405 -79 28 -6 115 -22 195 -37 80 -14 158 -30 174 -35 16 -5 54 -9
86 -9 l56 0 46 63 c25 34 68 91 95 127 27 36 96 128 153 204 l104 139 -565
558 c-310 307 -567 558 -570 559 -4 0 -65 -60 -135 -133z"/>
</g>
</svg>
